<svg width="20" height="20" viewBox="0 0 20 20" fill="none" xmlns="http://www.w3.org/2000/svg">
<g clip-path="url(#clip0_3655_5966)">
<path d="M2.5 10H11.6667" stroke="#4E2D2D" stroke-width="1.3" stroke-linecap="round" stroke-linejoin="round"/>
<path d="M9.16602 7.5L11.666 10L9.16602 12.5" stroke="#4E2D2D" stroke-width="1.3" stroke-linecap="round" stroke-linejoin="round"/>
<path d="M5 7.61425V6.16675C5.00023 5.7816 5.13385 5.40841 5.37814 5.11064C5.62244 4.81288 5.96232 4.60891 6.34 4.53342L15.5067 2.52842C15.7596 2.4992 16.0158 2.52432 16.2582 2.60208C16.5006 2.67984 16.7236 2.80845 16.9123 2.97932C17.101 3.15019 17.251 3.35938 17.3524 3.5929C17.4537 3.82642 17.5041 4.07888 17.5 4.33342V15.8334C17.5001 16.0763 17.4472 16.3162 17.3448 16.5364C17.2425 16.7567 17.0933 16.9519 16.9076 17.1084C16.722 17.265 16.5043 17.379 16.27 17.4427C16.0356 17.5063 15.7902 17.5179 15.5508 17.4767L6.38417 15.9001C5.99668 15.8334 5.64523 15.6319 5.39193 15.3312C5.13864 15.0305 4.99982 14.6499 5 14.2567V12.4759" stroke="#4E2D2D" stroke-width="1.3" stroke-linecap="round" stroke-linejoin="round"/>
</g>
<defs>
<clipPath id="clip0_3655_5966">
<rect width="20" height="20" fill="white"/>
</clipPath>
</defs>
</svg>
