<svg width="28" height="28" viewBox="0 0 28 28" fill="none" xmlns="http://www.w3.org/2000/svg">
<g clip-path="url(#clip0_984_14211)">
<path d="M20.9997 23.3333V22.4583C20.9997 21.1433 20.4773 19.8821 19.5474 18.9523C18.6176 18.0224 17.3564 17.5 16.0413 17.5H7.29134C5.97631 17.5 4.71514 18.0224 3.78527 18.9523C2.8554 19.8821 2.33301 21.1433 2.33301 22.4583V23.3333" stroke="#4E2D2D" stroke-width="2" stroke-linecap="round" stroke-linejoin="round"/>
<path d="M11.6667 12.8333C14.244 12.8333 16.3333 10.744 16.3333 8.16667C16.3333 5.58934 14.244 3.5 11.6667 3.5C9.08934 3.5 7 5.58934 7 8.16667C7 10.744 9.08934 12.8333 11.6667 12.8333Z" stroke="#4E2D2D" stroke-width="2" stroke-linecap="round" stroke-linejoin="round"/>
<path d="M20.2998 12.6L21.701 14L24.0331 11.6667" stroke="#4E2D2D" stroke-width="2" stroke-linecap="round" stroke-linejoin="round"/>
</g>
<defs>
<clipPath id="clip0_984_14211">
<rect width="28" height="28" fill="white"/>
</clipPath>
</defs>
</svg>
