<svg width="20" height="20" viewBox="0 0 20 20" fill="none" xmlns="http://www.w3.org/2000/svg">
<g clip-path="url(#clip0_371_3647)">
<path d="M2.5 10H11.6667" stroke="#4E2D2D" stroke-width="1.3" stroke-linecap="round" stroke-linejoin="round"/>
<path d="M9.16667 7.5L11.6667 10L9.16667 12.5" stroke="#4E2D2D" stroke-width="1.3" stroke-linecap="round" stroke-linejoin="round"/>
<path d="M5 7.61419V6.16669C5.00023 5.78153 5.13385 5.40835 5.37814 5.11058C5.62244 4.81281 5.96232 4.60885 6.34 4.53336L15.5067 2.52836C15.7596 2.49914 16.0158 2.52425 16.2582 2.60201C16.5006 2.67977 16.7236 2.80839 16.9123 2.97926C17.101 3.15013 17.251 3.35932 17.3524 3.59284C17.4537 3.82635 17.5041 4.07882 17.5 4.33336V15.8334C17.5001 16.0762 17.4472 16.3161 17.3448 16.5364C17.2425 16.7566 17.0933 16.9518 16.9076 17.1084C16.722 17.2649 16.5043 17.379 16.27 17.4426C16.0356 17.5062 15.7902 17.5179 15.5508 17.4767L6.38417 15.9C5.99668 15.8334 5.64523 15.6319 5.39193 15.3312C5.13864 15.0305 4.99982 14.6499 5 14.2567V12.4759" stroke="#4E2D2D" stroke-width="1.3" stroke-linecap="round" stroke-linejoin="round"/>
</g>
<defs>
<clipPath id="clip0_371_3647">
<rect width="20" height="20" fill="white"/>
</clipPath>
</defs>
</svg>
